<?xml version="1.0" encoding="iso-8859-1"?>
<!-- Generator: Adobe Illustrator 18.1.1, SVG Export Plug-In . SVG Version: 6.00 Build 0)  -->
<svg xmlns="http://www.w3.org/2000/svg" xmlns:xlink="http://www.w3.org/1999/xlink" version="1.1" id="Capa_1" x="0px" y="0px" viewBox="0 0 15.31 15.31" style="enable-background:new 0 0 15.31 15.31;" xml:space="preserve" width="512px" height="512px">
<g>
	<path d="M11.996,1.438c0-1.752-3.626-1.427-3.963-1.392V0.03H5.645v0.767H4.792   c-0.565,0-1.023,0.458-1.023,1.023l0,0c0,0.402-0.053,0.75,0.12,0.917V2.721h5.803c0.162-0.08,0.226-0.2,0.226-0.502   C9.97,2.096,9.909,1.962,9.909,1.821l0,0c0-0.565-0.458-1.023-1.023-1.023H8.033V0.555c0.011,0,0.022,0.004,0.034,0.003   c0.9-0.102,3.422-0.139,3.422,0.953c0,1.089-0.685,1.59-1.442,1.905C9.919,3.325,9.764,3.27,9.594,3.27H4.095   c-0.432,0-0.781,0.35-0.781,0.781v10.478c0,0.433,0.35,0.781,0.781,0.781h5.499c0.432,0,0.78-0.349,0.78-0.781V4.051   c0-0.075-0.013-0.146-0.032-0.215C11.226,3.442,11.996,2.717,11.996,1.438z" fill="#3679d1"/>
</g>
<g>
</g>
<g>
</g>
<g>
</g>
<g>
</g>
<g>
</g>
<g>
</g>
<g>
</g>
<g>
</g>
<g>
</g>
<g>
</g>
<g>
</g>
<g>
</g>
<g>
</g>
<g>
</g>
<g>
</g>
</svg>
