<?xml version="1.0" encoding="iso-8859-1"?>
<!-- Generator: Adobe Illustrator 18.1.1, SVG Export Plug-In . SVG Version: 6.00 Build 0)  -->
<svg xmlns="http://www.w3.org/2000/svg" xmlns:xlink="http://www.w3.org/1999/xlink" version="1.1" id="Capa_1" x="0px" y="0px" viewBox="0 0 26.564 26.564" style="enable-background:new 0 0 26.564 26.564;" xml:space="preserve" width="512px" height="512px">
<g>
	<path d="M26.564,0.456l-19.99-0.04L6.557,4.303L2.706,4.305C1.961,4.306,1.287,4.611,0.799,5.1C0.308,5.59,0.003,6.266,0,7.011   l0.005,9.424C0.003,17.924,1.22,19.142,2.71,19.14l3.995-0.002v0.536v2.847c-0.003,1.994,1.433,3.624,3.189,3.627h13.451   c0.806,0,1.542-0.343,2.104-0.906c0.667-0.667,1.089-1.64,1.089-2.72L26.564,0.456z M6.532,16.057H3.587   c0,0-1.015,0.094-1.015-0.849c0-0.941,0-6.01,0-7.164c0-0.896,0.92-0.848,0.92-0.848h3.04V16.057z" fill="#b81835"/>
	<g>
	</g>
	<g>
	</g>
	<g>
	</g>
	<g>
	</g>
	<g>
	</g>
	<g>
	</g>
	<g>
	</g>
	<g>
	</g>
	<g>
	</g>
	<g>
	</g>
	<g>
	</g>
	<g>
	</g>
	<g>
	</g>
	<g>
	</g>
	<g>
	</g>
</g>
<g>
</g>
<g>
</g>
<g>
</g>
<g>
</g>
<g>
</g>
<g>
</g>
<g>
</g>
<g>
</g>
<g>
</g>
<g>
</g>
<g>
</g>
<g>
</g>
<g>
</g>
<g>
</g>
<g>
</g>
</svg>
